<?xml version="1.0" encoding="UTF-8"?>
<svg version="1.1" viewBox="0 0 450 450" xmlns="http://www.w3.org/2000/svg">
 <defs>
  <linearGradient id="i" x1="393.62" x2="416.14" y1="291.56" y2="354.22" gradientTransform="matrix(1.0504 0 0 1.0504 -181.29 304.64)" gradientUnits="userSpaceOnUse">
   <stop stop-color="#fff" offset="0"/>
   <stop stop-color="#fff" stop-opacity="0" offset="1"/>
  </linearGradient>
  <linearGradient id="j" x1="424.95" x2="424.95" y1="628.39" y2="568.53" gradientTransform="translate(-163.41 321.87)" gradientUnits="userSpaceOnUse">
   <stop stop-color="#f00" offset="0"/>
   <stop stop-color="#f00" stop-opacity="0" offset="1"/>
  </linearGradient>
  <filter id="g" color-interpolation-filters="sRGB">
   <feGaussianBlur stdDeviation="1.548125"/>
  </filter>
  <linearGradient id="k" x1="431.81" x2="427.89" y1="437.45" y2="528.51" gradientTransform="matrix(1.0504 0 0 1.0504 -181.29 306.64)" gradientUnits="userSpaceOnUse">
   <stop stop-color="#f00" offset="0"/>
   <stop stop-color="#f00" stop-opacity="0" offset="1"/>
  </linearGradient>
  <linearGradient id="l" x1="414.18" x2="414.18" y1="365" y2="634.26" gradientTransform="matrix(1.0504 0 0 1.0504 -181.29 306.64)" gradientUnits="userSpaceOnUse">
   <stop stop-color="#f00" offset="0"/>
   <stop stop-color="#800000" offset="1"/>
  </linearGradient>
  <filter id="h" x="-.18089" y="-.4884" width="1.3618" height="1.9768">
   <feGaussianBlur stdDeviation="5.9777395"/>
  </filter>
 </defs>
 <g transform="translate(0 -602.36)">
  <path d="m219.24 612.78a6.2754 6.3767 0 0 0 -4.4773 1.8929l-104.15 107.53a6.2754 6.3767 0 0 0 -0.0327 8.933l44.806 46.857a6.2754 6.3767 0 0 0 8.8893 0.0995l48.695-48.451v236.01a6.2754 6.3767 0 0 0 6.2748 6.376h71.67a6.2754 6.3767 0 0 0 6.2748 -6.376v-346.5a6.2754 6.3767 0 0 0 -6.2748 -6.376h-71.67z" color="#000000" stroke="#000" stroke-linecap="round" stroke-linejoin="round" stroke-width="12.65"/>
  <path d="m218.55 612.75a6.4057 6.3029 0 0 0 -4.5702 1.871l-106.32 106.29a6.4057 6.3029 0 0 0 -0.0333 8.8297l45.736 46.315a6.4057 6.3029 0 0 0 9.0738 0.0984l49.706-47.891v233.28a6.4057 6.3029 0 0 0 6.405 6.3023h73.157a6.4057 6.3029 0 0 0 6.405 -6.3023v-342.49a6.4057 6.3029 0 0 0 -6.405 -6.3023h-73.157z" color="#000000" fill="#fff"/>
  <path d="m219.87 615.88a6.3029 6.3029 0 0 0 -4.4969 1.871l-104.61 106.29a6.3029 6.3029 0 0 0 -0.0328 8.8297l45.002 46.315a6.3029 6.3029 0 0 0 8.9282 0.0984l48.908-47.891v233.28a6.3029 6.3029 0 0 0 6.3023 6.3023h71.984a6.3029 6.3029 0 0 0 6.3023 -6.3023v-342.49a6.3029 6.3029 0 0 0 -6.3023 -6.3023h-71.984z" color="#000000" fill="url(#l)"/>
  <path d="m219.86 613.87a6.3029 6.3029 0 0 0 -4.4969 1.871l-38.437 39.061c9.5869-4.4185 20.072-7.8937 31.249-10.208 32.305-6.6902 64.353-2.4501 89.971 9.8145v-34.236a6.3029 6.3029 0 0 0 -6.3023 -6.3023h-71.984z" color="#000000" fill="url(#i)"/>
  <path transform="matrix(1.0504 0 0 1.0504 -9.644 -31.45)" d="m293.03 880.06c-20.953 19.435-48.733 34.361-80.531 42.562v25.719a6.0006 6.0006 0 0 0 6 6h68.531a6.0006 6.0006 0 0 0 6 -6v-68.281z" color="#000000" fill="url(#j)" filter="url(#g)"/>
  <path d="m298.14 705.88c-9.9004 29.017-31.653 60.899-62.662 88.396-7.1664 6.3548-14.507 12.166-21.927 17.463v19.662c4.6548-2.1697 9.3097-4.4923 13.95-6.9916 29.525-15.901 53.814-35.976 70.638-56.819v-61.71zm0 83.078c-15.562 21.388-38.306 42.389-66.338 59.675-6.0502 3.7308-12.146 7.1492-18.25 10.274v11.259c5.3799-2.8159 10.75-5.8362 16.084-9.1252 29.377-18.115 52.931-40.315 68.504-62.76v-9.3221z" color="#000000" fill="url(#k)"/>
  <path transform="matrix(1.0504 0 0 .94378 -190.43 368.51)" d="m464.12 697.91a39.656 14.687 0 1 1 -79.312 0 39.656 14.687 0 1 1 79.312 0z" color="#000000" fill="#f00" filter="url(#h)" opacity=".44"/>
 </g>
</svg>
